<?xml version="1.0" standalone="no"?>
<!DOCTYPE svg PUBLIC "-//W3C//DTD SVG 20010904//EN"
 "http://www.w3.org/TR/2001/REC-SVG-20010904/DTD/svg10.dtd">
<svg version="1.0" xmlns="http://www.w3.org/2000/svg"
 width="1080.000000pt" height="1080.000000pt" viewBox="0 0 1080.000000 1080.000000"
 preserveAspectRatio="xMidYMid meet">
<metadata>
Created by potrace 1.14, written by Peter Selinger 2001-2017
</metadata>
<g transform="translate(0.000000,1080.000000) scale(0.100000,-0.100000)"
fill="#000000" stroke="none">
<path d="M3362 10582 c-27 -4 -76 -51 -227 -217 -60 -66 -116 -127 -125 -136
-8 -9 -53 -58 -100 -109 -47 -52 -94 -103 -105 -115 -11 -11 -63 -67 -115
-125 -52 -57 -102 -111 -110 -120 -8 -9 -58 -63 -110 -120 -52 -57 -118 -129
-147 -159 -28 -31 -62 -68 -75 -82 -71 -78 -208 -227 -238 -260 -19 -20 -65
-70 -101 -110 -37 -41 -80 -88 -95 -105 -16 -16 -51 -55 -79 -85 -27 -30 -99
-108 -160 -173 -60 -65 -120 -134 -132 -153 -25 -42 -21 -65 28 -145 19 -30
39 -63 46 -74 35 -57 523 -861 856 -1409 76 -126 147 -243 157 -260 9 -16 42
-70 72 -120 31 -49 172 -281 313 -515 142 -234 335 -551 428 -705 93 -154 177
-292 186 -307 9 -15 151 -249 315 -520 165 -271 357 -587 427 -703 213 -352
235 -383 272 -393 51 -13 84 6 160 98 39 47 76 90 81 95 6 6 49 55 96 110 47
55 87 102 90 105 3 3 41 48 85 100 44 52 82 97 85 100 3 3 87 100 185 215 99
116 182 212 185 215 3 3 43 50 90 105 151 178 159 185 201 185 35 0 99 -38 99
-60 0 -7 21 -53 131 -288 21 -46 39 -85 39 -87 0 -2 20 -45 44 -97 24 -51 77
-167 119 -258 41 -91 89 -196 107 -235 18 -38 67 -146 110 -240 43 -93 92
-200 109 -237 17 -38 45 -98 62 -135 17 -38 66 -144 109 -238 43 -93 91 -199
108 -235 16 -36 53 -117 82 -180 29 -63 65 -143 81 -177 16 -35 42 -91 58
-125 16 -35 87 -191 159 -348 72 -157 146 -319 165 -360 19 -41 83 -181 142
-310 102 -224 127 -278 194 -422 16 -35 51 -112 79 -173 27 -60 61 -135 75
-165 14 -30 34 -65 44 -77 37 -43 114 -32 149 22 12 19 14 39 9 91 -3 37 -8
70 -10 73 -2 4 -11 51 -20 106 -9 55 -39 224 -65 375 -27 151 -51 291 -54 311
-3 20 -8 42 -10 50 -3 8 -8 32 -11 54 -6 42 -42 255 -49 291 -2 12 -7 37 -10
55 -3 19 -8 45 -10 59 -7 35 -24 138 -31 180 -3 19 -8 42 -10 50 -2 8 -6 33
-10 55 -3 22 -17 103 -30 180 -13 77 -27 156 -30 175 -3 19 -10 53 -15 75 -5
22 -11 60 -15 85 -3 25 -12 79 -20 120 -8 41 -16 91 -19 110 -3 19 -8 46 -11
60 -5 25 -24 137 -30 175 -2 11 -13 72 -24 135 -12 63 -23 126 -25 140 -11 59
-68 390 -77 440 -5 30 -11 64 -13 75 -2 11 -16 90 -30 175 -26 150 -30 171
-41 235 -9 49 -34 188 -40 220 -3 17 -8 46 -11 65 -2 19 -9 58 -14 85 -5 28
-11 61 -14 75 -2 14 -11 63 -20 110 -8 47 -18 101 -20 120 -3 19 -12 73 -21
120 -17 96 -63 359 -71 405 -2 17 -18 104 -34 195 -16 91 -32 181 -35 200 -3
19 -12 69 -20 110 -8 41 -17 91 -19 110 -5 36 -19 118 -61 350 -14 74 -27 153
-30 175 -4 22 -8 47 -10 55 -2 8 -7 38 -11 65 -3 28 -8 52 -9 55 -2 3 -6 24
-9 46 -6 39 -11 64 -21 114 -2 14 -7 41 -10 60 -3 19 -10 58 -15 85 -5 28 -12
66 -14 85 -3 19 -8 46 -11 60 -3 14 -14 79 -26 145 -24 144 -27 163 -34 195
-2 13 -7 42 -10 65 -3 22 -8 47 -11 56 -3 10 -6 30 -8 45 -2 16 -9 56 -15 89
-16 86 -18 97 -41 232 -11 67 -22 130 -24 140 -2 10 -7 38 -11 63 -4 25 -9 54
-11 65 -6 27 -12 63 -19 105 -3 19 -14 82 -24 140 -11 58 -24 134 -31 170 -6
36 -12 72 -14 80 -1 8 -6 37 -11 65 -6 37 -20 64 -58 112 -44 55 -53 62 -76
56 -14 -3 -29 -8 -33 -10 -4 -2 -123 -146 -265 -321 -141 -174 -298 -367 -348
-428 -49 -61 -106 -130 -125 -154 -19 -24 -48 -60 -65 -80 -16 -20 -44 -54
-62 -76 -17 -21 -106 -131 -198 -244 -92 -113 -181 -223 -198 -244 -227 -282
-235 -291 -287 -291 -59 0 -74 22 -147 206 -34 85 -109 273 -166 419 -58 146
-139 351 -180 455 -41 105 -140 354 -220 555 -79 201 -181 460 -227 575 -45
116 -88 224 -95 240 -7 17 -95 237 -195 490 -100 253 -191 470 -202 481 -21
23 -49 32 -86 26z"/>
</g>
</svg>
